<svg viewBox="0 0 1024 1024" width="1em" height="1em">
  <path
    fill="currentColor"
    d="M812.8 217.6c0-12.8-2.133333-25.6-8.533333-38.4-10.666667-17.066667-25.6-32-44.8-38.4-12.8-4.266667-25.6-6.4-40.533334-4.266667-12.8 0-29.866667 4.266667-49.066666 6.4L445.866667 174.933333c-14.933333 2.133333-27.733333 4.266667-36.266667 6.4-10.666667 2.133333-21.333333 6.4-29.866667 12.8-14.933333 8.533333-25.6 23.466667-32 38.4-4.266667 10.666667-6.4 21.333333-6.4 32v330.666667h-85.333333c-72.533333 0-132.266667 59.733333-132.266667 132.266667 0 72.533333 59.733333 132.266667 132.266667 132.266666 72.533333 0 132.266667-59.733333 132.266667-132.266666v-426.666667-34.133333c0-8.533333 2.133333-10.666667 2.133333-14.933334 2.133333-6.4 8.533333-12.8 14.933333-17.066666 2.133333-2.133333 6.4-2.133333 12.8-4.266667 8.533333-2.133333 19.2-4.266667 34.133334-6.4L676.266667 192c21.333333-2.133333 34.133333-4.266667 44.8-6.4 10.666667 0 14.933333 0 19.2 2.133333 6.4 4.266667 14.933333 8.533333 19.2 17.066667 2.133333 2.133333 2.133333 6.4 4.266666 17.066667V526.933333H682.666667c-72.533333 0-132.266667 59.733333-132.266667 132.266667 0 72.533333 59.733333 132.266667 132.266667 132.266667 72.533333 0 132.266667-59.733333 132.266666-132.266667V266.666667c0-19.2 0-36.266667-2.133333-49.066667zM337.066667 725.333333c0 44.8-36.266667 81.066667-81.066667 81.066667-44.8 0-81.066667-36.266667-81.066667-81.066667 0-44.8 36.266667-81.066667 81.066667-81.066666h81.066667V725.333333z m426.666666-64c0 44.8-36.266667 81.066667-81.066666 81.066667-44.8 0-81.066667-36.266667-81.066667-81.066667 0-44.8 36.266667-81.066667 81.066667-81.066666h81.066666V661.333333z">
  </path>
</svg>
