<svg viewBox="0 0 1024 1024" width="1em" height="1em">
  <path fill="currentColor" d="M298.666667 529.066667h426.666666v51.2H298.666667zM298.666667 678.4h277.333333v51.2H298.666667z"></path>
  <path
    fill="currentColor"
    d="M849.066667 396.8c-4.266667-12.8-8.533333-27.733333-17.066667-38.4-8.533333-12.8-21.333333-25.6-46.933333-46.933333L618.666667 160c-21.333333-19.2-32-29.866667-44.8-36.266667-10.666667-6.4-23.466667-10.666667-34.133334-12.8-14.933333-4.266667-29.866667-4.266667-57.6-4.266666h-106.666666c-72.533333 0-106.666667 0-134.4 14.933333-23.466667 12.8-42.666667 32-55.466667 55.466667C170.666667 204.8 170.666667 238.933333 170.666667 311.466667v401.066666c0 72.533333 0 106.666667 14.933333 134.4 12.8 23.466667 32 42.666667 55.466667 55.466667 27.733333 14.933333 64 14.933333 134.4 14.933333h273.066666c72.533333 0 106.666667 0 134.4-14.933333 23.466667-12.8 42.666667-32 55.466667-55.466667 14.933333-27.733333 14.933333-64 14.933333-134.4V462.933333c0-34.133333 0-51.2-4.266666-66.133333zM580.266667 194.133333l4.266666 4.266667 166.4 151.466667c4.266667 4.266667 8.533333 6.4 10.666667 10.666666H640c-32 0-59.733333-27.733333-59.733333-59.733333v-106.666667z m221.866666 518.4c0 36.266667 0 61.866667-2.133333 78.933334-2.133333 19.2-4.266667 25.6-6.4 32-6.4 14.933333-19.2 25.6-34.133333 34.133333-4.266667 2.133333-12.8 4.266667-32 6.4-19.2 2.133333-42.666667 2.133333-78.933334 2.133333H375.466667c-36.266667 0-61.866667 0-78.933334-2.133333-19.2-2.133333-25.6-4.266667-32-6.4-14.933333-6.4-25.6-19.2-34.133333-34.133333-2.133333-4.266667-4.266667-12.8-6.4-32-2.133333-19.2-2.133333-42.666667-2.133333-78.933334V311.466667c0-36.266667 0-61.866667 2.133333-78.933334 2.133333-19.2 4.266667-25.6 6.4-32 6.4-14.933333 19.2-25.6 34.133333-34.133333 4.266667-2.133333 12.8-4.266667 32-6.4 19.2-2.133333 42.666667-2.133333 78.933334-2.133333h106.666666c32 0 38.4 0 46.933334 2.133333h2.133333V298.666667c0 61.866667 49.066667 110.933333 110.933333 110.933333h160c2.133333 8.533333 2.133333 17.066667 2.133334 53.333333v249.6z">
  </path>
</svg>
