<svg viewBox="0 0 1024 1024" width="1em" height="1em">
  <path
    fill="currentColor"
    d="M320 294.4c-61.866667 0-110.933333 49.066667-110.933333 110.933333s49.066667 110.933333 110.933333 110.933334c61.866667 0 110.933333-49.066667 110.933333-110.933334s-49.066667-110.933333-110.933333-110.933333z m0 170.666667c-32 0-59.733333-27.733333-59.733333-59.733334s27.733333-59.733333 59.733333-59.733333c32 0 59.733333 27.733333 59.733333 59.733333s-27.733333 59.733333-59.733333 59.733334z">
  </path>
  <path
    fill="currentColor"
    d="M928 228.266667c-10.666667-19.2-27.733333-36.266667-46.933333-46.933334C857.6 170.666667 827.733333 170.666667 768 170.666667H256c-59.733333 0-89.6 0-113.066667 10.666666-19.2 10.666667-36.266667 27.733333-46.933333 46.933334C85.333333 251.733333 85.333333 281.6 85.333333 341.333333v341.333334c0 59.733333 0 89.6 10.666667 113.066666 10.666667 19.2 27.733333 36.266667 46.933333 46.933334 23.466667 10.666667 53.333333 10.666667 113.066667 10.666666h512c59.733333 0 89.6 0 113.066667-10.666666 19.2-10.666667 36.266667-25.6 46.933333-46.933334 10.666667-23.466667 10.666667-53.333333 10.666667-113.066666V341.333333c0-59.733333 0-89.6-10.666667-113.066666zM887.466667 682.666667c0 29.866667 0 51.2-2.133334 66.133333-2.133333 14.933333-4.266667 21.333333-4.266666 23.466667-4.266667 10.666667-12.8 19.2-23.466667 23.466666-2.133333 2.133333-8.533333 4.266667-23.466667 4.266667-14.933333 2.133333-34.133333 2.133333-66.133333 2.133333H256c-29.866667 0-51.2 0-66.133333-2.133333-14.933333-2.133333-21.333333-4.266667-23.466667-4.266667-10.666667-4.266667-19.2-12.8-23.466667-23.466666-2.133333-2.133333-4.266667-8.533333-4.266666-23.466667-2.133333-14.933333-2.133333-34.133333-2.133334-66.133333v-27.733334c55.466667 40.533333 115.2 57.6 170.666667 53.333334 70.4-4.266667 134.4-40.533333 177.066667-98.133334 57.6-76.8 106.666667-108.8 157.866666-123.733333 44.8-12.8 89.6-12.8 145.066667-12.8h25.6v-51.2H789.333333c-53.333333 0-108.8 0-160 14.933333-61.866667 19.2-121.6 59.733333-183.466666 142.933334-34.133333 44.8-83.2 74.666667-138.666667 76.8-51.2 2.133333-108.8-14.933333-166.4-68.266667V341.333333c0-29.866667 0-51.2 2.133333-66.133333 2.133333-14.933333 4.266667-21.333333 4.266667-23.466667 4.266667-10.666667 12.8-19.2 23.466667-23.466666 2.133333-2.133333 8.533333-4.266667 23.466666-4.266667 14.933333-2.133333 34.133333-2.133333 66.133334-2.133333h512c29.866667 0 51.2 0 66.133333 2.133333 14.933333 2.133333 21.333333 4.266667 23.466667 4.266667 10.666667 4.266667 19.2 12.8 23.466666 23.466666 2.133333 2.133333 4.266667 8.533333 4.266667 23.466667 2.133333 14.933333 2.133333 34.133333 2.133333 66.133333v341.333334z">
  </path>
</svg>
