<svg viewBox="0 0 1024 1024" width="1em" height="1em">
  <path
    fill="currentColor"
    d="M42.666667 396.8c0-71.68 0-107.52 13.952-134.912a128 128 0 0 1 55.936-55.936C139.946667 192 175.786667 192 247.466667 192h251.733333c71.68 0 107.52 0 134.912 13.952a128 128 0 0 1 55.936 55.936C704 289.28 704 325.12 704 396.8v9.728l203.861333-125.802667c32.832-20.266667 77.738667 1.984 77.738667 42.538667v377.472c0 40.554667-44.906667 62.805333-77.738667 42.538667L704 617.472v9.728c0 71.68 0 107.52-13.952 134.912a128 128 0 0 1-55.936 55.936C606.72 832 570.88 832 499.2 832H247.466667c-71.68 0-107.52 0-134.912-13.952a128 128 0 0 1-55.936-55.936C42.666667 734.72 42.666667 698.88 42.666667 627.2V396.8z m204.8-153.6c-36.693333 0-61.12 0.042667-79.893334 1.578667-18.176 1.493333-26.496 4.096-31.786666 6.784a76.8 76.8 0 0 0-33.557334 33.578666c-2.666667 5.269333-5.312 13.589333-6.784 31.765334-1.536 18.773333-1.578667 43.2-1.578666 79.893333v230.4c0 36.693333 0.042667 61.12 1.578666 79.893333 1.493333 18.176 4.117333 26.496 6.784 31.786667a76.8 76.8 0 0 0 33.578667 33.557333c5.269333 2.688 13.589333 5.312 31.765333 6.784 18.773333 1.536 43.2 1.578667 79.893334 1.578667h251.733333c36.693333 0 61.12-0.042667 79.893333-1.578667 18.176-1.493333 26.496-4.117333 31.786667-6.784a76.8 76.8 0 0 0 33.557333-33.578666c2.688-5.269333 5.312-13.589333 6.784-31.765334 1.536-18.773333 1.578667-43.2 1.578667-79.893333V396.8c0-36.693333-0.042667-61.12-1.578667-79.893333-1.493333-18.176-4.096-26.496-6.784-31.786667a76.8 76.8 0 0 0-33.578666-33.557333c-5.269333-2.688-13.589333-5.312-31.765334-6.784-18.773333-1.536-43.2-1.578667-79.893333-1.578667H247.466667z m460.8 220.864v95.872l226.133333 139.541333V324.522667l-226.133333 139.52z">
  </path>
</svg>
