<svg width="24" height="24" viewBox="0 0 48 48" fill="currentColor"><path fill-rule="evenodd" clip-rule="evenodd" d="M31.718 28c.446 0 .607.046.77.134.163.087.291.215.378.378.088.162.134.324.134.77V34h9.718c.446 0 .607.046.77.134.163.087.291.215.378.378.088.163.134.324.134.77v1.436c0 .446-.046.607-.134.77a.908.908 0 01-.378.378c-.163.088-.324.134-.77.134H33v4.718c0 .446-.046.607-.134.77a.908.908 0 01-.378.378c-.163.088-.324.134-.77.134h-1.436c-.446 0-.608-.046-.77-.134a.908.908 0 01-.378-.378c-.088-.163-.134-.324-.134-.77V38H5.282c-.446 0-.607-.046-.77-.134a.908.908 0 01-.378-.378c-.088-.163-.134-.324-.134-.77v-1.436c0-.446.046-.607.134-.77a.908.908 0 01.378-.378c.163-.088.324-.134.77-.134H29v-4.718c0-.446.046-.608.134-.77a.908.908 0 01.378-.378c.162-.088.324-.134.77-.134h1.436zm-14-24c.446 0 .608.046.77.134.163.087.291.215.378.378.088.163.134.324.134.77V10h23.718c.446 0 .607.046.77.134.163.087.291.215.378.378.088.162.134.324.134.77v1.436c0 .446-.046.607-.134.77a.908.908 0 01-.378.378c-.163.088-.324.134-.77.134H19v4.718c0 .446-.046.608-.134.77a.908.908 0 01-.378.378c-.162.088-.324.134-.77.134h-1.436c-.446 0-.607-.046-.77-.134a.908.908 0 01-.378-.378c-.088-.162-.134-.324-.134-.77V14H5.282c-.446 0-.607-.046-.77-.134a.908.908 0 01-.378-.378c-.088-.162-.134-.324-.134-.77v-1.436c0-.446.046-.607.134-.77a.908.908 0 01.378-.378c.163-.088.324-.134.77-.134H15V5.282c0-.446.046-.607.134-.77a.908.908 0 01.378-.378c.162-.088.324-.134.77-.134h1.436z" fill="currentColor"/></svg>