<svg width="20" height="20" viewBox="0 0 20 20">
  <defs>
    <linearGradient id="type_md-a" x1="2.775" y1="19.775" x2="14.738" y2="3.033" gradientUnits="userSpaceOnUse"><stop stop-color="#38ABFF"></stop><stop offset=".958" stop-color="#38BBFC"></stop></linearGradient>
  </defs>
  <path
    d="M3.705 18.257h12.59a.93.93 0 0 0 .93-.93V6.299a.93.93 0 0 0-.325-.706l-4.23-3.626a.93.93 0 0 0-.606-.224H3.705a.93.93 0 0 0-.93.93v14.654c0 .513.417.93.93.93z"
    fill="url(#type_md-a)"></path>
  <path
    d="M7.466 8.054a.76.76 0 0 0-.76.76v4.82a.556.556 0 1 0 1.112 0V10.22l1.512 3.542a.707.707 0 0 0 1.3 0l1.512-3.542v3.415a.556.556 0 0 0 1.112 0v-4.82a.76.76 0 0 0-1.456-.301l-1.814 4.196-1.821-4.197a.76.76 0 0 0-.697-.458z"
    fill="#fff" stroke="#fff" stroke-width=".128"></path>
  <path
    d="M12.417 4.496c0 .77.624 1.393 1.393 1.393h3.321l-.062-.094-.09-.121-4.345-3.724s-.08-.055-.124-.076c-.042-.021-.093-.051-.093-.051v2.673z"
    fill="#fff" fill-opacity=".5"></path>
</svg>
