<svg viewBox="0 0 24 24" width="1em" height="1em">
  <path
    d="M16.53 4.22c.22-.45.52-.68.92-.68.36 0 .64.17.83.52.2.34.3.81.3 1.4a3.1 3.1 0 0 1-.35 1.57c-.22.39-.53.59-.91.59-.35 0-.61-.19-.79-.55h-.01v.45h-.87V1.77h.87v2.45h.01zm-.02 1.6a1.14 1.14 0 0 0 .15.63c.1.17.24.25.4.25.2 0 .35-.1.46-.32a2 2 0 0 0 .17-.9c0-.32-.05-.57-.15-.75-.1-.18-.24-.27-.43-.27-.17 0-.32.09-.43.27a1.3 1.3 0 0 0-.17.7ZM5.6 11.56l-3.1-3.1.97-.97 1.47 1.46v-2.2A2.03 2.03 0 0 1 6.96 4.7h3.43v1.32H6.96a.72.72 0 0 0-.68.73l.01 2.19 1.39-1.38.96.96-3.04 3.04Zm7.65-4.04h.94v-2.5c0-1.18-.46-1.78-1.38-1.78-.2 0-.41.04-.66.1a2.11 2.11 0 0 0-.56.25v.97c.34-.3.71-.44 1.1-.44.38 0 .57.23.57.68l-.88.16c-.74.12-1.11.59-1.11 1.4 0 .38.09.7.27.92a.9.9 0 0 0 .74.35c.42 0 .74-.24.96-.7h.01zm0-1.98v.28a1.1 1.1 0 0 1-.17.64.54.54 0 0 1-.46.25.4.4 0 0 1-.32-.14.56.56 0 0 1-.11-.36c0-.33.16-.51.48-.57l.59-.1zM9.82 19.21h-.94v-.6h-.02c-.21.46-.53.7-.96.7a.9.9 0 0 1-.74-.35 1.47 1.47 0 0 1-.27-.92c0-.8.38-1.28 1.12-1.4l.87-.15c0-.46-.19-.69-.57-.69-.38 0-.75.15-1.1.45v-.98c.14-.09.33-.17.57-.24.24-.07.46-.1.66-.1.92 0 1.38.59 1.38 1.78zm-.94-1.7v-.29l-.58.1c-.33.06-.49.25-.49.57 0 .15.04.27.12.36a.4.4 0 0 0 .32.14.54.54 0 0 0 .46-.25c.11-.17.17-.38.17-.63zm4.24 1.8c.47 0 .83-.09 1.08-.26v-1.03a1.32 1.32 0 0 1-.8.3.9.9 0 0 1-.74-.31c-.17-.22-.26-.5-.26-.88s.1-.68.28-.9a.94.94 0 0 1 .75-.32c.28 0 .54.1.77.3v-1.1c-.19-.12-.5-.19-.91-.19-.61 0-1.1.2-1.47.62-.36.4-.54.97-.54 1.68 0 .61.17 1.11.5 1.5.35.4.8.59 1.34.59zM2.5 13.46 3.96 12h13.16l1.46 1.46v7.3l-1.46 1.47H3.96L2.5 20.77Zm1.46 0v7.3h13.16v-7.3Zm4.39-2.92L9.8 9.08h10.23l1.46 1.46v7.3l-1.46 1.47v-8.77z"
    fill="currentColor"></path>
</svg>
