<svg viewBox="0 0 24 24" width="1em" height="1em">
  <path
    d="m5.4 5.42 3.48 3.5 3.43-3.43-1.08-1.08-1.57 1.55V3.5a.8.8 0 0 1 .76-.81h2.35v-1.5h-2.35a2.29 2.29 0 0 0-2.28 2.3v2.5L6.48 4.33Zm10.3 2.77c.3.48.7.72 1.25.72.61 0 1.1-.26 1.45-.78.37-.51.55-1.2.55-2.05 0-.8-.15-1.41-.46-1.87a1.51 1.51 0 0 0-1.33-.68c-.63 0-1.11.3-1.45.9h-.02V1.19h-1.37v7.6h1.37v-.6Zm-.03-1.64v-.52c0-.39.09-.7.27-.93a.83.83 0 0 1 .69-.36.76.76 0 0 1 .67.36c.16.24.24.57.24 1 0 .5-.09.9-.26 1.18a.8.8 0 0 1-.73.42.76.76 0 0 1-.63-.33 1.32 1.32 0 0 1-.25-.82zm-1.35 12.82c-.4.23-.97.35-1.71.35-.87 0-1.58-.27-2.12-.82a2.9 2.9 0 0 1-.8-2.12c0-1 .28-1.8.86-2.37a3.12 3.12 0 0 1 2.31-.87c.67 0 1.16.1 1.46.28v1.54a1.95 1.95 0 0 0-1.23-.42c-.5 0-.9.15-1.2.46-.29.3-.43.72-.43 1.26 0 .52.14.93.42 1.23.28.3.67.44 1.16.44.43 0 .86-.14 1.28-.43zm-7.73-8.91L5.05 12v9.27l1.54 1.54h10.82l1.54-1.54V12l-1.54-1.54zm0 1.54h10.82v9.27H6.59Z"
    fill="currentColor"></path>
</svg>
