<?xml version="1.0" standalone="no"?>
<!DOCTYPE svg PUBLIC "-//W3C//DTD SVG 1.1//EN" "http://www.w3.org/Graphics/SVG/1.1/DTD/svg11.dtd"><svg t="1669910873489"
  class="icon" viewBox="0 0 1024 1024" version="1.1" xmlns="http://www.w3.org/2000/svg" p-id="1684"
  xmlns:xlink="http://www.w3.org/1999/xlink" width="1em" height="1em">
  <path
    d="M625.8688 421.0176l49.5616 100.4032 110.7968 16.0768c37.376 5.4272 52.3264 51.4048 25.2928 77.7728l-80.1792 78.1312 18.944 110.336c6.4 37.2224-32.7168 65.6384-66.1504 48.0768l-99.1232-52.1216-99.1232 52.1728c-33.4336 17.5616-72.5504-10.8032-66.1504-48.0768l18.944-110.336-80.1792-78.1312c-27.0848-26.368-12.1344-72.3456 25.2928-77.7728l110.7968-16.0768 49.5616-100.4032c16.6912-33.9456 65.024-33.9456 81.7152-0.0512z"
    fill="#FFBE0A" p-id="1685"></path>
  <path
    d="M316.928 922.4704c-22.6816 0-45.2096-7.1168-64.4608-21.0944-34.0992-24.7808-50.8416-65.9456-43.7248-107.4688l27.5456-160.6144-116.6848-113.7152c-30.1568-29.3888-40.8064-72.5504-27.8016-112.64s47.0016-68.7104 88.6784-74.752l161.2288-23.4496 72.0896-146.1248c18.6368-37.7856 56.3712-61.2352 98.5088-61.2352 42.1376 0 79.872 23.4496 98.5088 61.2352l72.0896 146.1248 161.2288 23.4496c41.6768 6.0416 75.6736 34.7136 88.6784 74.752s2.3552 83.2-27.8016 112.64L788.48 633.344l27.5456 160.6144c7.1168 41.5232-9.6256 82.688-43.7248 107.4688-34.0992 24.7808-78.3872 27.9552-115.712 8.3456l-144.2304-75.8272-144.2304 75.8272a109.98272 109.98272 0 0 1-51.2 12.6976z m195.4816-164.864c5.7344 0 11.4688 1.3824 16.6912 4.096l160.8704 84.5824c13.1584 6.912 28.2112 5.8368 40.192-2.9184 12.032-8.7552 17.7152-22.6816 15.2064-37.3248l-30.72-179.1488c-1.9968-11.6224 1.8432-23.5008 10.2912-31.744l130.1504-126.8736c10.6496-10.3936 14.2336-24.9856 9.6768-39.1168-4.608-14.1312-16.128-23.8592-30.8224-26.0096l-179.8656-26.112a35.77856 35.77856 0 0 1-26.9824-19.6096l-80.4352-163.0208c-6.5536-13.312-19.3536-21.2992-34.2528-21.2992s-27.648 7.936-34.2528 21.2992L397.7216 357.4272a35.77856 35.77856 0 0 1-26.9824 19.6096l-179.8656 26.1632c-14.6944 2.1504-26.2144 11.8272-30.8224 26.0096-4.608 14.1312-0.9728 28.7744 9.6768 39.1168l130.1504 126.8736a35.82464 35.82464 0 0 1 10.2912 31.744l-30.72 179.1488c-2.5088 14.6432 3.1744 28.6208 15.2064 37.3248 12.032 8.7552 27.0336 9.8304 40.192 2.9184l160.9216-84.5824c5.1712-2.7648 10.9056-4.1472 16.64-4.1472z"
    fill="currentColor" p-id="1686"></path>
</svg>
