<svg t="1670755267829" class="icon" viewBox="0 0 1024 1024" version="1.1" xmlns="http://www.w3.org/2000/svg" p-id="1361"
  width="200" height="200">
  <path d="M588.9536 656.9472m-179.0976 0a179.0976 179.0976 0 1 0 358.1952 0 179.0976 179.0976 0 1 0-358.1952 0Z"
    fill="#FFBE0A" p-id="1362"></path>
  <path d="M508.2112 512m-53.2992 0a53.2992 53.2992 0 1 0 106.5984 0 53.2992 53.2992 0 1 0-106.5984 0Z" fill="currentColor"
    p-id="1363"></path>
  <path d="M327.8336 512m-53.2992 0a53.2992 53.2992 0 1 0 106.5984 0 53.2992 53.2992 0 1 0-106.5984 0Z" fill="currentColor"
    p-id="1364"></path>
  <path d="M687.3088 512m-53.2992 0a53.2992 53.2992 0 1 0 106.5984 0 53.2992 53.2992 0 1 0-106.5984 0Z" fill="currentColor"
    p-id="1365"></path>
  <path
    d="M508.2112 923.4432c-226.8672 0-411.4432-184.576-411.4432-411.4432s184.576-411.4432 411.4432-411.4432 411.4432 184.576 411.4432 411.4432-184.576 411.4432-411.4432 411.4432z m0-751.2064C320.8704 172.2368 168.448 324.6592 168.448 512s152.4224 339.7632 339.7632 339.7632 339.7632-152.4224 339.7632-339.7632c0.0512-187.3408-152.3712-339.7632-339.7632-339.7632z"
    fill="currentColor" p-id="1366"></path>
</svg>
