<?xml version="1.0" standalone="no"?><!DOCTYPE svg PUBLIC "-//W3C//DTD SVG 1.1//EN" "http://www.w3.org/Graphics/SVG/1.1/DTD/svg11.dtd"><svg t="1669911021862" class="icon" viewBox="0 0 1024 1024" version="1.1" xmlns="http://www.w3.org/2000/svg" p-id="1847" xmlns:xlink="http://www.w3.org/1999/xlink" width="200" height="200"><path d="M518.2976 882.432h93.7984c103.168 0 186.7776-83.6096 186.7776-186.7776v-123.8016c0-44.1344-35.7888-79.9232-79.9232-79.9232H625.152c-103.168 0-186.7776 83.6096-186.7776 186.7776v123.8016c0 44.1344 35.7888 79.9232 79.9232 79.9232z" fill="#FFBE0A" p-id="1848"></path><path d="M899.9936 258.56h-211.5584v-48.9472c0-59.392-48.3328-107.7248-107.7248-107.7248H436.992c-59.392 0-107.7248 48.3328-107.7248 107.7248v48.9472h-198.144c-19.8144 0-35.84 16.0256-35.84 35.84s16.0256 35.84 35.84 35.84h58.6752v434.2272c0 80.6912 65.6384 146.2784 146.2784 146.2784h346.2656c80.6912 0 146.2784-65.6384 146.2784-146.2784V330.24h71.3216c19.8144 0 35.84-16.0256 35.84-35.84s-15.9744-35.84-35.7888-35.84z m-499.0464-48.9472c0-19.8656 16.1792-36.0448 36.0448-36.0448h143.7696c19.8656 0 36.0448 16.1792 36.0448 36.0448v48.9472H400.9472v-48.9472z m356.0448 554.8032c0 41.1648-33.4848 74.5984-74.5984 74.5984H336.128c-41.1648 0-74.5984-33.4848-74.5984-74.5984V330.24h495.5136v434.176z" fill="#34332E" p-id="1849"></path><path d="M412.928 439.6032c-19.8144 0-35.84 16.0256-35.84 35.84v219.2384c0 19.8144 16.0256 35.84 35.84 35.84s35.84-16.0256 35.84-35.84V475.4432c0-19.8144-16.0256-35.84-35.84-35.84zM601.4464 439.6032c-19.8144 0-35.84 16.0256-35.84 35.84v219.2384c0 19.8144 16.0256 35.84 35.84 35.84s35.84-16.0256 35.84-35.84V475.4432c0-19.8144-16.0768-35.84-35.84-35.84z" fill="#34332E" p-id="1850"></path></svg>