<?xml version="1.0" standalone="no"?>
<!DOCTYPE svg PUBLIC "-//W3C//DTD SVG 1.1//EN" "http://www.w3.org/Graphics/SVG/1.1/DTD/svg11.dtd"><svg t="1669910777498"
  class="icon" viewBox="0 0 1024 1024" version="1.1" xmlns="http://www.w3.org/2000/svg" p-id="1523"
  xmlns:xlink="http://www.w3.org/1999/xlink" width="200" height="200">
  <path
    d="M734.3104 264.96h-156.0576c-20.8384 0-41.1648-6.5536-58.112-18.7392L422.5024 175.872c-16.896-12.1856-37.2224-18.7392-58.112-18.7392H293.12c-83.9168 0-151.9616 68.0448-151.9616 151.9616v134.9632H886.272v-27.136c0-83.9168-68.0448-151.9616-151.9616-151.9616z"
    fill="#FFBE0A" p-id="1524"></path>
  <path
    d="M734.3104 229.12h-156.0576c-1.6896 0-3.328-0.0512-5.0176-0.2048-11.5712-0.9216-22.6304-4.9152-32.1536-11.776L443.4432 146.7904c-5.7856-4.1472-11.8272-7.8336-18.1248-11.008a134.3232 134.3232 0 0 0-60.928-14.4896H293.12c-103.5776 0-187.8016 84.2752-187.8016 187.8016V711.0656c0 103.5776 84.2752 187.8016 187.8016 187.8016h441.1904c103.5776 0 187.8016-84.2752 187.8016-187.8016V416.9216c0-103.5776-84.2752-187.8016-187.8016-187.8016zM176.9984 309.0944c0-64.0512 52.0704-116.1216 116.1216-116.1216h71.3216c13.4144 0 26.2656 4.1472 37.1712 11.9808L499.2 275.3024a131.1744 131.1744 0 0 0 24.2688 13.824c17.152 7.6288 35.6864 11.6736 54.784 11.6736h156.0576c3.6864 0 7.3216 0.2048 10.9056 0.512 0.2048 0 0.4096 0.0512 0.6144 0.0512 3.4304 0.3584 6.8096 0.8704 10.1888 1.4848 0.3072 0.0512 0.6656 0.1024 1.024 0.2048 3.2256 0.6656 6.4512 1.4336 9.5744 2.3552 0.4096 0.1024 0.8192 0.2048 1.2288 0.3584 3.072 0.9216 6.0928 1.9968 9.0112 3.1744 0.4608 0.1536 0.8704 0.3584 1.3312 0.512 2.9184 1.1776 5.7344 2.5088 8.5504 3.8912 0.4608 0.2048 0.8704 0.4608 1.3312 0.6656 2.7648 1.4336 5.4272 2.9696 8.0896 4.6592l1.2288 0.768c2.6112 1.6896 5.1712 3.4816 7.6288 5.376 0.3584 0.256 0.7168 0.5632 1.0752 0.8704 2.4576 1.9456 4.864 3.9424 7.168 6.0928 0.3072 0.256 0.5632 0.5632 0.8704 0.8192 2.304 2.2016 4.5568 4.4544 6.7072 6.8608 0.2048 0.256 0.4096 0.4608 0.6144 0.7168 2.1504 2.4576 4.2496 5.0176 6.2464 7.6288l0.3072 0.4608c2.048 2.7648 3.9424 5.5808 5.7344 8.4992 1.792 2.9184 3.4304 5.9392 4.9152 9.0112 0.1024 0.2048 0.2048 0.3584 0.3072 0.5632 1.4336 2.9696 2.7648 6.0416 3.9424 9.1136 0.1024 0.3072 0.256 0.6144 0.3584 0.9216 1.1264 3.0208 2.1504 6.144 3.0208 9.3184 0.1024 0.4096 0.256 0.8192 0.3584 1.1776 0.8192 3.1232 1.536 6.2976 2.0992 9.5232 0.1024 0.4608 0.1536 0.9216 0.256 1.3824 0.512 3.1744 0.9216 6.4512 1.1776 9.728 0 0.256 0.0512 0.512 0.0512 0.768H176.9984V309.0944z m557.312 518.0928H293.12c-64.0512 0-116.1216-52.0704-116.1216-116.1216V479.8976H850.432v231.168c0 64-52.1216 116.1216-116.1216 116.1216z"
    fill="currentColor" p-id="1525"></path>
</svg>
