<svg t="1670298482639" class="icon" viewBox="0 0 1024 1024" version="1.1" xmlns="http://www.w3.org/2000/svg" p-id="1361"
  width="200" height="200">
  <path
    d="M556.1856 863.2832h118.6304c103.168 0 186.7776-83.6096 186.7776-186.7776v-150.7328c0-44.1344-35.7888-79.9232-79.9232-79.9232H663.04c-103.168 0-186.7776 83.6096-186.7776 186.7776V783.36c0 44.1344 35.7888 79.9232 79.9232 79.9232z"
    fill="#FFBE0A" p-id="1362"></path>
  <path
    d="M711.168 113.7664H311.7568c-108.9536 0-197.632 88.6272-197.632 197.632v399.4112c0 108.9536 88.6272 197.632 197.632 197.632h399.4112c108.9536 0 197.632-88.6272 197.632-197.632V311.3472c-0.0512-108.9536-88.6784-197.5808-197.632-197.5808zM185.8048 311.3472c0-69.4272 56.4736-125.952 125.952-125.952h399.4112c69.4272 0 125.952 56.4736 125.952 125.952v200.5504l-38.8608-34.048c-40.9088-35.84-102.144-32.9216-139.4176 6.656-29.2352 31.0784-71.2704 75.776-105.3184 112.2816-16.8448 18.1248-31.7952 34.2016-42.496 45.9264-0.256 0.256-0.4608 0.512-0.7168 0.8192l-32.4608-26.7776c-40.3456-33.28-98.56-30.3616-135.3728 6.8608l-142.8992 144.3328a124.68224 124.68224 0 0 1-13.7728-57.1392V311.3472z m63.1808 508.5696l144.4352-145.8688a28.65152 28.65152 0 0 1 38.8096-1.9456l199.68 164.6592H311.7568c-22.8352-0.0512-44.288-6.1952-62.7712-16.8448z m491.4176 13.312l-174.7456-144.0768c18.8416-20.5824 59.0848-63.9488 145.3056-155.4944a28.70272 28.70272 0 0 1 39.9872-1.8944l86.1184 75.52v103.5264c0 59.3408-41.2672 109.2096-96.6656 122.4192z"
    fill="currentColor" p-id="1363"></path>
  <path d="M376.5248 357.4784m-58.624 0a58.624 58.624 0 1 0 117.248 0 58.624 58.624 0 1 0-117.248 0Z" fill="currentColor"
    p-id="1364"></path>
</svg>
