<?xml version="1.0" standalone="no"?>
<!DOCTYPE svg PUBLIC "-//W3C//DTD SVG 1.1//EN" "http://www.w3.org/Graphics/SVG/1.1/DTD/svg11.dtd"><svg t="1669911089670"
  class="icon" viewBox="0 0 1024 1024" version="1.1" xmlns="http://www.w3.org/2000/svg" p-id="2009"
  xmlns:xlink="http://www.w3.org/1999/xlink" width="1em" height="1em">
  <path d="M575.8976 621.9264m-179.6608 0a179.6608 179.6608 0 1 0 359.3216 0 179.6608 179.6608 0 1 0-359.3216 0Z"
    fill="#FFBE0A" p-id="2010"></path>
  <path
    d="M510.976 937.5744c-33.4848 0-66.9184-8.7552-96.5632-26.3168l-203.8272-120.3712c-58.2144-34.4064-94.0032-97.7408-93.3376-165.376l2.304-236.6976c0.6656-67.6352 37.6832-130.304 96.5632-163.5328l206.1312-116.3264c58.88-33.2288 131.6864-32.512 189.9008 1.8432l203.8272 120.3712c58.2144 34.4064 94.0032 97.7408 93.3376 165.376l-2.304 236.6976c-0.6656 67.6352-37.6832 130.304-96.5632 163.5328l-206.1312 116.3264c-28.8768 16.384-61.1328 24.4736-93.3376 24.4736z m4.6592-781.4144c-20.0704 0-40.0896 5.0688-58.112 15.2064L251.392 287.744c-36.6592 20.6848-59.6992 59.6992-60.1088 101.7856l-2.304 236.6976c-0.4096 42.0864 21.8624 81.5616 58.112 102.9632l203.8272 120.3712c36.2496 21.4016 81.5616 21.8624 118.2208 1.1776l206.1312-116.3264c36.6592-20.6848 59.6992-59.6992 60.1088-101.7856l2.304-236.6976c0.4096-42.0864-21.8624-81.5616-58.112-102.9632L575.744 172.544c-18.4832-10.9056-39.2704-16.384-60.1088-16.384z"
    fill="currentColor" p-id="2011"></path>
  <path
    d="M513.28 676.4544c-91.1872 0-165.376-74.1888-165.376-165.376s74.1888-165.376 165.376-165.376 165.376 74.1888 165.376 165.376-74.1888 165.376-165.376 165.376z m0-259.072c-51.6608 0-93.696 42.0352-93.696 93.696s42.0352 93.696 93.696 93.696 93.696-42.0352 93.696-93.696-42.0352-93.696-93.696-93.696z"
    fill="currentColor" p-id="2012"></path>
</svg>
