<svg viewBox="0 0 24 24" width="1em" height="1em">
  <path
    d="M21 4.5000005V14.25a1.5000007 1.5000005 0 0 1-1.500007 1.500005h-8.999996v1.49999a.74999993.74999995 0 0 1-.459373.693747.79687482.79687478 0 0 1-.290624.056263.77812509.77812509 0 0 1-.534375-.215621l-2.25-2.25a.759375.759375 0 0 1 0-1.068763l2.25-2.25a.7875.7875 0 0 1 .824999-.159371.74999993.74999995 0 0 1 .459373.693745V14.25h8.999996V4.5000005H9.0000007v.7499997a.75000036.75000039 0 0 1-1.5000007 0v-.7499997A1.5000007 1.5000005 0 0 1 9.0000007 3H19.499993A1.5000007 1.5000005 0 0 1 21 4.5000005ZM15.750007 18.000005a.74999993.74999995 0 0 0-.750014.749995v.749995H4.5000007V9.7500002h9.0000063v1.5000048a.759375.759375 0 0 0 .459381.693745.79687482.79687478 0 0 0 .290612.05631.77812509.77812509 0 0 0 .534372-.215621l2.25-2.2500079a.759375.759375 0 0 0 0-1.06875l-2.25-2.25a.76875023.76875019 0 0 0-.824984-.1594227.74999993.74999995 0 0 0-.459381.6937502v1.4999978H4.5000007A1.5000007 1.5000005 0 0 0 3 9.7500002v9.7499948A1.5000007 1.5000005 0 0 0 4.5000007 21H14.999993A1.5000007 1.5000005 0 0 0 16.5 19.499995V18.75a.74999993.74999995 0 0 0-.749993-.749995z"
    fill="currentColor"></path>
</svg>
