<svg t="1672832186030" class="icon" viewBox="0 0 1024 1024" version="1.1" xmlns="http://www.w3.org/2000/svg" p-id="1235"
  width="1em" height="1em">
  <path
    d="M862 902c0 16.569-13.431 30-30 30H192c-16.569 0-30-13.431-30-30V122c0-16.569 13.431-30 30-30h476l194 194v616z"
    fill="#BEBEBE" p-id="1236"></path>
  <path d="M862 286H698c-16.569 0-30-13.431-30-30V92" fill="#FFFFFF" fill-opacity=".296" p-id="1237"></path>
  <path
    d="M474.17 591.28h59.78v-11.27c0-16.66 5.88-25.97 35.77-48.02 33.32-24.99 44.1-42.63 44.1-88.2 0-68.6-33.32-86.73-113.68-86.73-29.4 0-55.86 3.43-73.99 8.82v60.76c17.15-5.39 39.69-8.33 59.78-8.33 39.69 0 51.94 6.37 51.94 35.77 0 20.58-4.41 29.89-25.97 47.04-28.91 24.99-37.73 40.18-37.73 68.11v22.05z m30.38 114.66c34.79 0 41.65-5.88 41.65-41.16 0-34.3-6.86-40.67-41.65-40.67-35.28 0-41.65 6.37-41.65 40.67 0 35.28 6.37 41.16 41.65 41.16z"
    fill="#FFFFFF" p-id="1238"></path>
</svg>
